Very Young Virgin Teen with perfect Pink nippled tits and small tight bald pussy gets savagely Ra





File info..........
 
Format                           : MPEG-PS
File size                        : 110 MiB
Duration                         : 1mn 22s
Overall bit rate                 : 11.2 Mbps

Video
ID                               : 224 (0xE0)
Format                           : MPEG Video
Format version                   : Version 1
Format settings, BVOP            : Yes
Format settings, Matrix          : Default
Duration                         : 1mn 22s
Bit rate mode                    : Constant
Bit rate                         : 10.8 Mbps
Nominal bit rate                 : 512 Kbps
Width                            : 352 pixels
Height                           : 288 pixels
Display aspect ratio             : 4:3
Frame rate                       : 25.000 fps
Standard                         : PAL
Color space                      : YUV
Bit depth                        : 8 bits
Scan type                        : Progressive
Compression mode                 : Lossy
Bits/(Pixel*Frame)               : 4.251
Stream size                      : 106 MiB (96%)

Audio
ID                               : 192 (0xC0)
Format                           : MPEG Audio
Format version                   : Version 1
Format profile                   : Layer 2
Duration                         : 1mn 22s
Bit rate mode                    : Constant
Bit rate                         : 192 Kbps
Channel(s)                       : 1 channel
Sampling rate                    : 32.0 KHz
Compression mode                 : Lossy
Delay relative to video          : 8ms
Stream size                      : 1.89 MiB (2%)



Screens...............


 
http://picturestack.com/39/158/1ydvlcsnap20104W.png 
http://picturestack.com/39/158/shGvlcsnap201GDY.png 
http://picturestack.com/39/158/sJwvlcsnap201ICw.png 
http://picturestack.com/39/158/Ivjvlcsnap201tvU.png 
http://picturestack.com/39/158/ajLvlcsnap201Fhu.png 
http://picturestack.com/39/158/7kNvlcsnap201dcb.png 
http://picturestack.com/39/158/7IYvlcsnap201E61.png 
http://picturestack.com/39/158/WzUvlcsnap201utS.png 
http://picturestack.com/39/158/scQvlcsnap2016bK.png 
http://picturestack.com/39/158/agWvlcsnap20135g.png 
http://picturestack.com/39/378/5ZNvlcsnap2019T0.png
